<?xml version="1.0" encoding="UTF-8"?>
<svg id="Layer_1" data-name="Layer 1" xmlns="http://www.w3.org/2000/svg" viewBox="0 0 185.38 68.54">
  <defs>
    <style>
      .cls-1 {
        fill: #231f20;
        stroke-width: 0px;
      }
    </style>
  </defs>
  <path class="cls-1" d="m17.07,4.28c1.93-1.69,4.52-2.53,7.77-2.53s5.76.95,7.54,2.85l1.29-1.2c-.92-1.1-2.16-1.95-3.73-2.53-1.56-.58-3.24-.87-5.01-.87-3.68,0-6.67,1-8.97,2.99-2.3,1.99-3.85,4.98-4.65,8.97l-1.8,9.02H.28l-.28,1.75h9.16L0,68.54h1.84L11.02,22.72h16.12l.28-1.75H11.37l1.69-8.46c.74-3.8,2.07-6.55,4-8.23Z"/>
  <path class="cls-1" d="m25.85,68.54L38.73,4.14h11.96l-10.86,54.28h33.67l-2.02,10.12H25.85Z"/>
  <polygon class="cls-1" points="138.83 14.17 140.85 4.14 93.84 4.14 80.96 68.54 129.26 68.54 131.28 58.51 94.85 58.51 98.39 40.76 129.63 40.76 131.56 30.91 100.35 30.91 103.68 14.17 138.83 14.17"/>
  <polygon class="cls-1" points="185.38 20.98 182.99 20.98 161.98 42.62 149.31 20.98 147.2 20.98 160.68 43.93 136.62 68.54 139.1 68.54 161.61 45.4 175.07 68.54 177.28 68.54 162.86 44.12 185.38 20.98"/>
</svg>